<svg xmlns="http://www.w3.org/2000/svg" viewBox="0 0 128 128">
  <!-- Die Wabe (Entwurf 23 der Zeichenwahl) — das Beizeichen zur Biene.
       Sieben Zellen, vier gefüllt, drei noch nicht: die Sammlung als Form.
       Sie tritt dort auf, wo es um das GESAMMELTE geht (Kompendium, Erfolge),
       nie als Ersatz für das Hauptzeichen. -->
  <defs>
    <linearGradient id="g" x1="0" y1="0" x2="1" y2="1">
      <stop offset="0" stop-color="#5b8cff"/>
      <stop offset="1" stop-color="#35c4a7"/>
    </linearGradient>
  </defs>
  <rect width="128" height="128" rx="28" fill="#0f1420"/>
  <g stroke="#0f1420" stroke-width="2.5">
    <path d="M64 44 L81 54 L81 74 L64 84 L47 74 L47 54 Z" fill="url(#g)"/>
    <path d="M29.4 44 L46.4 54 L46.4 74 L29.4 84 L12.4 74 L12.4 54 Z" fill="#2b3550"/>
    <path d="M98.6 44 L115.6 54 L115.6 74 L98.6 84 L81.6 74 L81.6 54 Z" fill="#5b8cff"/>
    <path d="M46.7 14 L63.7 24 L63.7 44 L46.7 54 L29.7 44 L29.7 24 Z" fill="#4aa8d8"/>
    <path d="M81.3 14 L98.3 24 L98.3 44 L81.3 54 L64.3 44 L64.3 24 Z" fill="#2b3550"/>
    <path d="M46.7 74 L63.7 84 L63.7 104 L46.7 114 L29.7 104 L29.7 84 Z" fill="#35c4a7"/>
    <path d="M81.3 74 L98.3 84 L98.3 104 L81.3 114 L64.3 104 L64.3 84 Z" fill="#2b3550"/>
  </g>
</svg>
